HIERARCHY
ROOT Hips
{
	OFFSET -0.001795 -0.223333 0.028219
	CHANNELS 6 Xposition Yposition Zposition Zrotation Yrotation Xrotation 
	JOINT LeftUpLeg
	{
		OFFSET 0.069520 -0.091406 -0.006815
		CHANNELS 3 Zrotation Yrotation Xrotation
		JOINT LeftLeg
		{
			OFFSET 0.034277 -0.375199 -0.004496
			CHANNELS 3 Zrotation Yrotation Xrotation
			JOINT LeftFoot
			{
				OFFSET -0.013596 -0.397961 -0.043693
				CHANNELS 3 Zrotation Yrotation Xrotation
				JOINT LeftToe
				{
					OFFSET 0.026358 -0.055791 0.119288
					CHANNELS 3 Zrotation Yrotation Xrotation
					End Site
					{
						OFFSET 0.000000 0.000000 0.000000
					}
				}
			}
		}
	}
	JOINT RightUpLeg
	{
		OFFSET -0.067670 -0.090522 -0.004320
		CHANNELS 3 Zrotation Yrotation Xrotation
		JOINT RightLeg
		{
			OFFSET -0.038290 -0.382569 -0.008850
			CHANNELS 3 Zrotation Yrotation Xrotation
			JOINT RightFoot
			{
				OFFSET 0.015774 -0.398415 -0.042312
				CHANNELS 3 Zrotation Yrotation Xrotation
				JOINT RightToe
				{
					OFFSET -0.025372 -0.048144 0.123348
					CHANNELS 3 Zrotation Yrotation Xrotation
					End Site
					{
						OFFSET 0.000000 0.000000 0.000000
					}
				}
			}
		}
	}
	JOINT Spine
	{
		OFFSET -0.002533 0.108963 -0.026696
		CHANNELS 3 Zrotation Yrotation Xrotation
		JOINT Spine1
		{
			OFFSET 0.005487 0.135180 0.001092
			CHANNELS 3 Zrotation Yrotation Xrotation
			JOINT Spine2
			{
				OFFSET 0.001457 0.052922 0.025425
				CHANNELS 3 Zrotation Yrotation Xrotation
				JOINT Neck
				{
					OFFSET -0.002778 0.213870 -0.042857
					CHANNELS 3 Zrotation Yrotation Xrotation
					JOINT Head
					{
						OFFSET 0.005152 0.064970 0.051349
						CHANNELS 3 Zrotation Yrotation Xrotation
						End Site
						{
							OFFSET 0.000000 0.000000 0.000000
						}
					}
				}
				JOINT LeftShoulder
				{
					OFFSET 0.078845 0.121749 -0.034090
					CHANNELS 3 Zrotation Yrotation Xrotation
					JOINT LeftArm
					{
						OFFSET 0.090977 0.030469 -0.008868
						CHANNELS 3 Zrotation Yrotation Xrotation
						JOINT LeftForeArm
						{
							OFFSET 0.259612 -0.012772 -0.027456
							CHANNELS 3 Zrotation Yrotation Xrotation
							JOINT LeftHand
							{
								OFFSET 0.249234 0.008986 -0.001171
								CHANNELS 3 Zrotation Yrotation Xrotation
								End Site
								{
									OFFSET 0.000000 0.000000 0.000000
								}
							}
						}
					}
				}
				JOINT RightShoulder
				{
					OFFSET -0.081759 0.118833 -0.038615
					CHANNELS 3 Zrotation Yrotation Xrotation
					JOINT RightArm
					{
						OFFSET -0.096012 0.032551 -0.009143
						CHANNELS 3 Zrotation Yrotation Xrotation
						JOINT RightForeArm
						{
							OFFSET -0.253742 -0.013329 -0.021401
							CHANNELS 3 Zrotation Yrotation Xrotation
							JOINT RightHand
							{
								OFFSET -0.255298 0.007772 -0.005559
								CHANNELS 3 Zrotation Yrotation Xrotation
								End Site
								{
									OFFSET 0.000000 0.000000 0.000000
								}
							}
						}
					}
				}
			}
		}
	}
}
MOTION
Frames: 17
Frame Time: 0.050000
0.000000 0.962500 0.000000 -0.159950 -17.349268 15.207943 1.712452 -0.941261 -23.829604 4.161793 -0.734885 4.006055 5.695915 12.246466 25.822333 0.000000 0.000000 0.000000 -2.876789 1.269804 -12.349982 -1.408400 -0.043251 -2.969533 -1.027131 -7.528172 8.246365 0.000000 0.000000 0.000000 3.396927 -0.781141 10.751269 -6.644865 2.933999 -2.452431 1.809219 17.298082 6.306011 10.454940 -6.618404 -6.844150 0.000000 0.000000 0.000000 5.512717 4.971871 -0.591587 -44.443029 13.260960 -10.334716 -121.171343 -40.731156 65.755853 0.000000 0.000000 0.000000 7.787714 1.917714 1.122229 65.579706 4.234826 -3.274736 21.617308 55.636748 15.667687 0.000000 0.000000 0.000000 
-0.003549 0.961311 -0.002516 -0.704866 -17.181027 18.142910 2.728462 -0.749431 -24.519264 3.519126 -0.461208 0.413786 6.122154 12.761568 24.675562 0.000000 0.000000 0.000000 -0.368434 1.724563 -15.514172 -4.964801 0.056529 -3.947382 -0.507299 -7.732103 10.518258 0.000000 0.000000 0.000000 2.456909 -0.739409 13.572659 -5.495033 2.241871 -4.510615 0.105508 18.986506 4.706321 13.444087 -9.458290 -4.443683 0.000000 0.000000 0.000000 2.671994 3.319387 -0.666476 -42.835204 10.655136 -8.836065 -118.513567 -43.358042 65.055121 0.000000 0.000000 0.000000 8.124160 3.026861 1.929784 61.613400 8.443759 -0.693036 17.436939 53.889754 13.154805 0.000000 0.000000 0.000000 
-0.005971 0.961645 -0.008259 -0.304587 -17.313707 18.862490 3.075776 -0.671460 -24.563260 3.171145 -0.387749 -0.180601 4.561159 10.491061 22.209435 0.000000 0.000000 0.000000 -0.954966 1.774516 -16.037481 -4.071706 -0.147934 -6.737282 -0.699677 -9.478940 13.656382 0.000000 0.000000 0.000000 1.464923 -0.567009 16.227825 -4.702446 1.979468 -3.473521 -2.107252 18.907304 2.899632 14.998366 -10.438997 -4.877784 0.000000 0.000000 0.000000 -0.038370 -2.777709 0.686040 -44.463822 2.728244 -6.196711 -109.475611 -53.788655 69.112124 0.000000 0.000000 0.000000 9.436963 9.201972 5.170305 58.437074 19.910247 4.925485 -4.452486 44.991551 1.472122 0.000000 0.000000 0.000000 
-0.007475 0.961517 -0.016329 0.407073 -17.009067 20.616799 3.186143 -0.615572 -27.291324 2.848304 -0.271208 -1.598645 3.717300 9.908095 27.063508 0.000000 0.000000 0.000000 -0.643281 2.214798 -19.044971 -5.295572 -0.067398 -5.869722 -1.582633 -11.073609 13.740170 0.000000 0.000000 0.000000 1.297386 -0.521826 19.055355 -4.073676 1.633387 -4.896300 -3.566093 18.269903 3.680770 17.086974 -10.623977 -8.773772 0.000000 0.000000 0.000000 -3.576620 -11.683838 3.272845 -43.572783 -6.796986 -2.593768 -87.600737 -67.166541 64.147995 0.000000 0.000000 0.000000 5.092961 17.037091 8.213384 54.966478 30.640727 9.987142 -15.132612 33.746104 -2.257043 0.000000 0.000000 0.000000 
-0.008184 0.960353 -0.025869 0.744541 -17.233309 21.450651 2.867236 -0.648143 -28.413398 3.434257 -0.343660 -1.406782 2.962248 8.752841 25.419014 0.000000 0.000000 0.000000 -1.059356 2.404618 -20.490779 -4.892466 -0.127611 -6.582585 -1.840635 -11.849523 14.585937 0.000000 0.000000 0.000000 0.118285 -0.105550 22.933350 -2.764453 1.121022 -4.776546 -5.124761 16.871035 3.890111 18.100502 -10.249453 -11.864805 0.000000 0.000000 0.000000 -2.627210 -19.073899 6.187192 -43.767572 -24.388953 3.300395 -27.945169 -67.457835 19.540059 0.000000 0.000000 0.000000 0.570260 25.065748 10.699979 45.522936 43.844903 13.530037 -18.390107 17.234724 -1.593695 0.000000 0.000000 0.000000 
-0.008307 0.959154 -0.034202 0.896733 -17.428665 22.783239 2.968179 -0.547838 -30.457275 3.567882 -0.298475 -2.332399 2.845301 9.023880 28.711257 0.000000 0.000000 0.000000 -0.898502 2.672073 -22.130038 -5.786191 -0.156563 -7.275750 -1.344099 -11.280609 15.163938 0.000000 0.000000 0.000000 0.029940 0.054036 25.646472 -2.615941 1.043805 -5.342723 -6.278236 15.186375 4.038689 18.704894 -10.573066 -12.100722 0.000000 0.000000 0.000000 -2.382098 -26.851031 9.387716 -38.644748 -36.940986 6.617954 1.361652 -52.578076 0.808500 0.000000 0.000000 0.000000 -6.065579 29.938658 10.817603 36.838688 50.749703 13.040050 -17.804658 8.821852 -0.633936 0.000000 0.000000 0.000000 
-0.007927 0.958407 -0.040278 1.324621 -17.027987 23.912674 2.455156 -0.689864 -31.278335 4.113270 -0.224149 -4.035678 2.016040 8.231358 29.469963 0.000000 0.000000 0.000000 -1.344476 2.738793 -22.894169 -6.061284 -0.231021 -8.405058 -1.159113 -10.899036 15.171107 0.000000 0.000000 0.000000 -0.169355 0.181193 27.393422 -2.669527 1.039945 -6.234920 -5.933962 12.860076 6.128834 18.497778 -10.248877 -13.128129 0.000000 0.000000 0.000000 0.583259 -30.338427 10.699148 -35.089005 -48.439545 9.048175 14.650263 -36.901653 -3.381905 0.000000 0.000000 0.000000 -11.990558 30.995566 9.437878 30.797232 55.284591 11.697492 -17.131397 4.738214 -0.163456 0.000000 0.000000 0.000000 
-0.007356 0.957938 -0.044360 1.356335 -17.310924 24.593442 1.901968 -0.773689 -31.975403 5.411447 -0.227439 -5.135871 1.541489 7.988768 31.673849 0.000000 0.000000 0.000000 -1.613303 2.821872 -23.507878 -5.750763 -0.302163 -9.473402 -1.065145 -11.118189 16.128754 0.000000 0.000000 0.000000 -0.506781 0.393732 28.649861 -2.012738 0.799323 -6.020386 -6.511360 11.840096 6.324547 18.033015 -10.260078 -12.211429 0.000000 0.000000 0.000000 3.387899 -32.752733 11.208072 -29.675772 -54.819066 8.756556 17.205624 -26.200686 -2.848055 0.000000 0.000000 0.000000 -16.298756 31.682572 8.532000 26.725225 58.399445 10.594958 -16.836855 2.095663 0.133732 0.000000 0.000000 0.000000 
-0.006559 0.957962 -0.047754 1.259868 -17.265566 24.822976 1.939598 -0.756530 -32.339653 5.731384 -0.191702 -5.725342 1.204118 7.875959 33.182249 0.000000 0.000000 0.000000 -1.325542 2.917565 -23.951419 -5.990573 -0.301802 -9.468988 -1.164653 -11.376092 16.361284 0.000000 0.000000 0.000000 -0.247045 0.405926 30.283591 -2.003824 0.776679 -6.853854 -6.570793 11.134271 7.600439 18.521859 -10.353934 -13.195814 0.000000 0.000000 0.000000 6.654235 -33.466035 10.836881 -26.040416 -59.514634 8.259837 17.663546 -19.493058 -2.146865 0.000000 0.000000 0.000000 -18.647973 31.548777 7.884146 24.023132 60.729570 9.682570 -16.323235 0.619223 0.286009 0.000000 0.000000 0.000000 
-0.005601 0.957349 -0.051462 1.540071 -17.571116 25.372034 1.677950 -0.767887 -33.139494 6.165741 -0.193916 -5.956673 0.325165 7.002703 33.871428 0.000000 0.000000 0.000000 -1.227693 3.096952 -24.926643 -5.994479 -0.314319 -9.642236 -2.145759 -13.131475 16.660081 0.000000 0.000000 0.000000 -0.593230 0.604792 30.896816 -1.364936 0.542258 -6.850799 -6.777005 10.999419 8.406412 18.029030 -10.021144 -13.355904 0.000000 0.000000 0.000000 8.661644 -35.068943 10.936605 -19.954717 -62.495263 5.671497 16.316927 -14.473846 -1.405069 0.000000 0.000000 0.000000 -21.600076 31.714948 7.178193 21.798193 62.340311 8.887720 -16.029410 -1.464731 0.508572 0.000000 0.000000 0.000000 
-0.004445 0.957234 -0.055418 1.584550 -17.412448 26.242941 1.642903 -0.746770 -34.341783 6.203227 -0.250068 -5.376912 -0.130192 6.275617 32.481489 0.000000 0.000000 0.000000 -1.255787 3.339679 -26.435208 -6.136963 -0.273487 -8.945288 -2.474161 -13.660748 16.614115 0.000000 0.000000 0.000000 -0.429595 0.597107 31.825276 -0.909944 0.372938 -7.436259 -6.977022 10.794504 8.928287 18.618973 -9.945289 -14.842401 0.000000 0.000000 0.000000 10.982626 -35.380097 10.523248 -16.965039 -65.382638 4.466003 15.527702 -10.949923 -0.977533 0.000000 0.000000 0.000000 -23.154827 31.591862 6.805087 19.609956 63.927627 8.019175 -16.069397 -3.263208 0.716891 0.000000 0.000000 0.000000 
-0.003119 0.956734 -0.059129 1.641389 -17.316044 26.631828 1.816454 -0.681256 -35.143867 5.766495 -0.302996 -4.497688 -0.279910 5.789106 30.727454 0.000000 0.000000 0.000000 -1.187237 3.540551 -27.598994 -6.243028 -0.244182 -8.475840 -3.117571 -14.878887 17.248732 0.000000 0.000000 0.000000 -0.486555 0.648895 32.397161 -0.178630 0.114624 -7.221188 -7.173466 11.024993 8.977373 19.642560 -10.477332 -15.079564 0.000000 0.000000 0.000000 10.693361 -37.119481 11.135081 -11.224919 -66.216763 1.076555 13.558184 -7.461322 -0.520084 0.000000 0.000000 0.000000 -24.327748 32.589873 6.697374 15.078937 63.927804 5.540908 -14.366098 -4.837607 0.781666 0.000000 0.000000 0.000000 
-0.001619 0.955234 -0.061545 1.688129 -17.229013 27.199337 2.052030 -0.592133 -35.941730 5.257389 -0.320550 -3.854391 -0.454266 5.240692 28.912867 0.000000 0.000000 0.000000 -1.366683 3.667374 -28.505491 -6.577609 -0.237002 -8.381671 -2.979882 -14.733762 17.490309 0.000000 0.000000 0.000000 -0.295012 0.588831 32.710552 -0.233653 0.136209 -7.356289 -7.248154 11.268302 8.958081 20.351571 -10.521156 -16.161275 0.000000 0.000000 0.000000 10.890979 -38.344493 11.476976 -6.824616 -66.764295 -1.591775 11.506775 -5.783007 -0.297981 0.000000 0.000000 0.000000 -25.761281 32.975832 6.421075 11.541606 63.865413 3.645714 -11.028757 -5.154009 0.577470 0.000000 0.000000 0.000000 
-0.000018 0.953817 -0.062479 1.862859 -16.867243 27.268320 2.318311 -0.543770 -36.478588 4.570623 -0.376296 -2.388113 -1.006013 4.030114 26.082353 0.000000 0.000000 0.000000 -1.373521 3.730125 -29.017192 -7.124066 -0.175581 -7.681892 -3.224777 -14.989919 17.111072 0.000000 0.000000 0.000000 0.085745 0.435617 33.388564 -0.146924 0.109234 -7.303092 -7.565824 11.603753 8.454624 20.966648 -10.618379 -16.785604 0.000000 0.000000 0.000000 10.008134 -39.512214 12.068917 -4.511702 -66.076010 -3.103589 10.725904 -5.032574 -0.212283 0.000000 0.000000 0.000000 -26.828596 33.327534 6.193923 10.318681 63.275840 3.152598 -9.454033 -4.716336 0.440904 0.000000 0.000000 0.000000 
0.001709 0.952434 -0.062235 2.136011 -16.629490 27.187540 2.444950 -0.529513 -36.818451 4.048121 -0.387151 -1.495325 -1.667700 2.928487 24.771278 0.000000 0.000000 0.000000 -1.781173 3.696832 -29.275468 -7.358430 -0.141568 -7.322243 -3.323010 -15.110238 17.101088 0.000000 0.000000 0.000000 0.414087 0.252364 33.119419 -0.540982 0.256165 -6.722601 -8.031799 11.975326 7.458117 21.172526 -10.704791 -16.603507 0.000000 0.000000 0.000000 7.772651 -40.897989 13.110108 -5.353301 -65.267125 -2.654720 10.402315 -5.271250 -0.196522 0.000000 0.000000 0.000000 -26.666047 33.923122 6.369812 10.123897 62.069312 3.101718 -7.344286 -3.882213 0.276198 0.000000 0.000000 0.000000 
0.003539 0.951070 -0.061225 2.925175 -16.066399 27.239624 1.784462 -0.785971 -37.562461 3.923973 -0.447878 -0.292054 -2.567208 1.483913 23.199094 0.000000 0.000000 0.000000 -2.253343 3.613424 -29.454452 -8.238297 -0.069311 -6.789433 -3.681296 -15.353686 16.160208 0.000000 0.000000 0.000000 0.598346 0.092644 32.915593 -0.592411 0.279805 -6.765415 -8.508377 11.813383 6.736351 21.520681 -10.697927 -17.051041 0.000000 0.000000 0.000000 6.457564 -41.267646 13.607095 -7.721447 -63.550645 -1.294670 11.460387 -8.862314 -0.443124 0.000000 0.000000 0.000000 -27.601608 33.847586 6.140583 14.949844 61.306140 5.794736 -8.612088 -2.493203 0.263532 0.000000 0.000000 0.000000 
0.005530 0.950009 -0.059609 3.115353 -15.615291 26.847691 1.559351 -0.908609 -37.655234 3.322004 -0.447302 0.943147 -2.051603 1.836968 21.470283 0.000000 0.000000 0.000000 -2.033966 3.628623 -29.517907 -8.684334 0.070508 -5.585691 -4.504878 -16.462040 15.342613 0.000000 0.000000 0.000000 0.576950 0.030127 32.694416 -0.287063 0.172101 -6.730101 -8.911246 12.732669 5.783738 22.146544 -11.224493 -16.366754 0.000000 0.000000 0.000000 1.895352 -41.910745 14.979557 -11.631383 -59.851212 0.601280 12.498298 -14.623858 -0.881191 0.000000 0.000000 0.000000 -24.459617 33.694241 6.943739 21.009482 59.215586 8.833122 -11.389189 -0.482709 0.231711 0.000000 0.000000 0.000000 
